<svg xmlns="http://www.w3.org/2000/svg" xmlns:xlink="http://www.w3.org/1999/xlink" width="71" height="60" version="1.1"><rect id="backgroundrect" width="100%" height="100%" x="0" y="0" fill="none" stroke="none"/>

<g class="currentLayer" style=""><title>Layer 1</title><g id="surface1" class="selected" fill="#ffffff" fill-opacity="1">
<path style="stroke: none; fill-rule: nonzero;" d="M33.105469,0.07132092118263246 C28.273438,0.5830394211826325 23.96875,2.7119454211826324 20.355469,6.372102421182633 C18.523438,8.227571421182633 17.34375,9.864289421182633 16.292969,12.020539421182633 C14.976562,14.708039421182633 14.425781,17.00882142118263 14.34375,20.161164421182633 C14.3125,21.497102421182632 14.328125,22.055695421182634 14.4375,22.887727421182632 C14.875,26.403352421182632 16.378906,29.594758421182632 18.9375,32.44241442118263 L19.589844,33.17288342118263 L0,33.17288342118263 L0,39.87210242118263 L28.171875,39.87210242118263 L28.171875,33.66507142118263 L27.847656,33.44632142118263 C27.074219,32.930695421182634 25.929688,31.997102421182632 25.195312,31.262727421182632 C22.640625,28.739289421182633 21.339844,25.918977421182632 21.046875,22.282258421182632 C20.796875,19.211945421182634 21.578125,16.055695421182634 23.195312,13.579133421182632 C24.3125,11.872102421182632 26.066406,10.098664421182633 27.710938,9.016633421182632 C30.867188,6.918977421182633 34.730469,6.211945421182633 38.621094,6.997102421182633 C40.722656,7.4228834211826324 42.925781,8.501008421182632 44.691406,9.950227421182632 C45.519531,10.633821421182633 47.035156,12.247102421182632 47.617188,13.083039421182633 C49.550781,15.817414421182633 50.417969,19.211945421182634 50.078125,22.66507142118263 C49.644531,26.965852421182632 47.476562,30.47757142118263 43.597656,33.20413342118263 L42.957031,33.65725842118263 L42.957031,39.87210242118263 L71.054688,39.87210242118263 L71.054688,33.17288342118263 L51.535156,33.17288342118263 L52.128906,32.524445421182634 C54.636719,29.817414421182633 56.207031,26.559602421182632 56.703125,23.067414421182633 C56.84375,22.079133421182632 56.859375,19.626008421182632 56.734375,18.524445421182634 C56.300781,14.645539421182633 54.953125,11.360383421182632 52.554688,8.321321421182633 C51.726562,7.270539421182632 49.882812,5.415071421182633 48.839844,4.583039421182632 C45.582031,1.9736644211826324 41.996094,0.4931954211826324 37.925781,0.06350842118263247 C37.058594,-0.022429078817367554 33.972656,-0.022429078817367554 33.105469,0.07132092118263246 zM33.105469,0.07132092118263246 " id="svg_1" fill="#ffffff" fill-opacity="1"/>
<path style="stroke: none; fill-rule: nonzero;" d="M0,56.46585242118263 L0,59.81741442118263 L71.054688,59.81741442118263 L71.054688,53.118195421182634 L0,53.118195421182634 zM0,56.46585242118263 " id="svg_2" fill="#ffffff" fill-opacity="1"/>
</g></g></svg>